<svg width="99" height="14" viewBox="0 0 99 14" fill="none" xmlns="http://www.w3.org/2000/svg">
<path d="M15.8261 1.848L12.5941 13H10.9621L8.37013 4.024L5.68213 13L4.06613 13.016L0.946125 1.848H2.49813L4.93013 11.304L7.61813 1.848H9.25013L11.8101 11.272L14.2581 1.848H15.8261ZM25.4195 8.28C25.4195 8.55733 25.4035 8.85067 25.3715 9.16H18.3635C18.4168 10.024 18.7102 10.7013 19.2435 11.192C19.7875 11.672 20.4435 11.912 21.2115 11.912C21.8408 11.912 22.3635 11.768 22.7795 11.48C23.2062 11.1813 23.5048 10.7867 23.6755 10.296H25.2435C25.0088 11.1387 24.5395 11.8267 23.8355 12.36C23.1315 12.8827 22.2568 13.144 21.2115 13.144C20.3795 13.144 19.6328 12.9573 18.9715 12.584C18.3208 12.2107 17.8088 11.6827 17.4355 11C17.0622 10.3067 16.8755 9.50667 16.8755 8.6C16.8755 7.69333 17.0568 6.89867 17.4195 6.216C17.7822 5.53333 18.2888 5.01067 18.9395 4.648C19.6008 4.27467 20.3582 4.088 21.2115 4.088C22.0435 4.088 22.7795 4.26933 23.4195 4.632C24.0595 4.99467 24.5502 5.496 24.8915 6.136C25.2435 6.76533 25.4195 7.48 25.4195 8.28ZM23.9155 7.976C23.9155 7.42133 23.7928 6.94667 23.5475 6.552C23.3022 6.14667 22.9662 5.84267 22.5395 5.64C22.1235 5.42667 21.6595 5.32 21.1475 5.32C20.4115 5.32 19.7822 5.55467 19.2595 6.024C18.7475 6.49333 18.4542 7.144 18.3795 7.976H23.9155ZM30.4454 13.144C29.7734 13.144 29.1707 13.032 28.6374 12.808C28.104 12.5733 27.6827 12.2533 27.3734 11.848C27.064 11.432 26.8934 10.9573 26.8614 10.424H28.3654C28.408 10.8613 28.6107 11.2187 28.9734 11.496C29.3467 11.7733 29.832 11.912 30.4294 11.912C30.984 11.912 31.4214 11.7893 31.7414 11.544C32.0614 11.2987 32.2214 10.9893 32.2214 10.616C32.2214 10.232 32.0507 9.94933 31.7094 9.768C31.368 9.576 30.84 9.38933 30.1254 9.208C29.4747 9.03733 28.9414 8.86667 28.5254 8.696C28.12 8.51467 27.768 8.25333 27.4694 7.912C27.1814 7.56 27.0374 7.10133 27.0374 6.536C27.0374 6.088 27.1707 5.67733 27.4374 5.304C27.704 4.93067 28.0827 4.63733 28.5734 4.424C29.064 4.2 29.624 4.088 30.2534 4.088C31.224 4.088 32.008 4.33333 32.6054 4.824C33.2027 5.31467 33.5227 5.98667 33.5654 6.84H32.1094C32.0774 6.38133 31.8907 6.01333 31.5494 5.736C31.2187 5.45867 30.7707 5.32 30.2054 5.32C29.6827 5.32 29.2667 5.432 28.9574 5.656C28.648 5.88 28.4934 6.17333 28.4934 6.536C28.4934 6.824 28.584 7.064 28.7654 7.256C28.9574 7.43733 29.192 7.58667 29.4694 7.704C29.7574 7.81067 30.152 7.93333 30.6534 8.072C31.2827 8.24267 31.7947 8.41333 32.1894 8.584C32.584 8.744 32.92 8.98933 33.1974 9.32C33.4854 9.65067 33.6347 10.0827 33.6454 10.616C33.6454 11.096 33.512 11.528 33.2454 11.912C32.9787 12.296 32.6 12.6 32.1094 12.824C31.6294 13.0373 31.0747 13.144 30.4454 13.144ZM37.4768 5.432V10.6C37.4768 11.0267 37.5674 11.3307 37.7488 11.512C37.9301 11.6827 38.2448 11.768 38.6927 11.768H39.7648V13H38.4528C37.6421 13 37.0341 12.8133 36.6288 12.44C36.2234 12.0667 36.0208 11.4533 36.0208 10.6V5.432H34.8848V4.232H36.0208V2.024H37.4768V4.232H39.7648V5.432H37.4768ZM54.3545 13L52.8985 11.528C52.3545 12.0933 51.7732 12.5147 51.1545 12.792C50.5358 13.0587 49.8372 13.192 49.0585 13.192C48.2905 13.192 47.6078 13.0533 47.0105 12.776C46.4238 12.4987 45.9652 12.104 45.6345 11.592C45.3145 11.08 45.1545 10.4827 45.1545 9.8C45.1545 9.02133 45.3732 8.33867 45.8105 7.752C46.2585 7.15467 46.9145 6.68533 47.7785 6.344C47.4372 5.93867 47.1918 5.56533 47.0425 5.224C46.8932 4.88267 46.8185 4.50933 46.8185 4.104C46.8185 3.63467 46.9358 3.21333 47.1705 2.84C47.4158 2.456 47.7625 2.15733 48.2105 1.944C48.6585 1.73067 49.1758 1.624 49.7625 1.624C50.3385 1.624 50.8398 1.736 51.2665 1.96C51.6932 2.184 52.0132 2.49867 52.2265 2.904C52.4398 3.29867 52.5358 3.74133 52.5145 4.232H51.0585C51.0692 3.79467 50.9465 3.45333 50.6905 3.208C50.4345 2.952 50.1038 2.824 49.6985 2.824C49.2718 2.824 48.9252 2.94667 48.6585 3.192C48.4025 3.42667 48.2745 3.73067 48.2745 4.104C48.2745 4.424 48.3598 4.73333 48.5305 5.032C48.7118 5.33067 49.0105 5.69867 49.4265 6.136L52.7545 9.48L53.0425 9.032L54.1305 7.208H55.6985L54.3865 9.48C54.2052 9.8 53.9918 10.136 53.7465 10.488L56.2585 13H54.3545ZM49.0585 11.944C49.6345 11.944 50.1518 11.832 50.6105 11.608C51.0798 11.384 51.5225 11.0373 51.9385 10.568L48.6585 7.272C47.2932 7.79467 46.6105 8.62133 46.6105 9.752C46.6105 10.3813 46.8345 10.904 47.2825 11.32C47.7412 11.736 48.3332 11.944 49.0585 11.944ZM73.2003 1.928V13H71.7443V4.744L68.0643 13H67.0403L63.3443 4.728V13H61.8883V1.928H63.4563L67.5523 11.08L71.6483 1.928H73.2003ZM75.1255 8.584C75.1255 7.688 75.3068 6.904 75.6695 6.232C76.0322 5.54933 76.5282 5.02133 77.1575 4.648C77.7975 4.27467 78.5068 4.088 79.2855 4.088C80.0535 4.088 80.7202 4.25333 81.2855 4.584C81.8508 4.91467 82.2722 5.33067 82.5495 5.832V4.232H84.0215V13H82.5495V11.368C82.2615 11.88 81.8295 12.3067 81.2535 12.648C80.6882 12.9787 80.0268 13.144 79.2695 13.144C78.4908 13.144 77.7868 12.952 77.1575 12.568C76.5282 12.184 76.0322 11.6453 75.6695 10.952C75.3068 10.2587 75.1255 9.46933 75.1255 8.584ZM82.5495 8.6C82.5495 7.93867 82.4162 7.36267 82.1495 6.872C81.8828 6.38133 81.5202 6.008 81.0615 5.752C80.6135 5.48533 80.1175 5.352 79.5735 5.352C79.0295 5.352 78.5335 5.48 78.0855 5.736C77.6375 5.992 77.2802 6.36533 77.0135 6.856C76.7468 7.34667 76.6135 7.92267 76.6135 8.584C76.6135 9.256 76.7468 9.84267 77.0135 10.344C77.2802 10.8347 77.6375 11.2133 78.0855 11.48C78.5335 11.736 79.0295 11.864 79.5735 11.864C80.1175 11.864 80.6135 11.736 81.0615 11.48C81.5202 11.2133 81.8828 10.8347 82.1495 10.344C82.4162 9.84267 82.5495 9.26133 82.5495 8.6ZM87.234 2.808C86.9567 2.808 86.722 2.712 86.53 2.52C86.338 2.328 86.242 2.09333 86.242 1.816C86.242 1.53867 86.338 1.304 86.53 1.112C86.722 0.919999 86.9567 0.823999 87.234 0.823999C87.5007 0.823999 87.7247 0.919999 87.906 1.112C88.098 1.304 88.194 1.53867 88.194 1.816C88.194 2.09333 88.098 2.328 87.906 2.52C87.7247 2.712 87.5007 2.808 87.234 2.808ZM87.938 4.232V13H86.482V4.232H87.938ZM94.6915 4.072C95.7582 4.072 96.6222 4.39733 97.2835 5.048C97.9448 5.688 98.2755 6.616 98.2755 7.832V13H96.8355V8.04C96.8355 7.16533 96.6168 6.49867 96.1795 6.04C95.7422 5.57067 95.1448 5.336 94.3875 5.336C93.6195 5.336 93.0062 5.576 92.5475 6.056C92.0995 6.536 91.8755 7.23467 91.8755 8.152V13H90.4195V4.232H91.8755V5.48C92.1635 5.032 92.5528 4.68533 93.0435 4.44C93.5448 4.19467 94.0942 4.072 94.6915 4.072Z" fill="black"/>
</svg>
